<svg width="1920" height="4986" viewBox="0 0 1920 4986" fill="none" xmlns="http://www.w3.org/2000/svg">
<g clip-path="url(#clip0_6_530)">
<rect width="1920" height="4986" fill="white"/>
<path d="M79.7617 -303.791C26.5547 -363.593 -31.0863 -328.708 -53.256 -303.791C-452.957 271.205 -271.954 4883.9 -28.6306 5409C663.816 5965.74 1367.25 6225.58 1987.01 5509.39C2089.6 5423.42 2210.56 -308.956 2166.79 -360.207C2123.03 -411.458 2126.57 -391.932 1906.65 -319.305C1373.01 -143.076 1231.46 -475.862 1044.56 -282.635C857.662 -89.4071 842.508 -286.866 783.577 -319.305C724.645 -351.745 611.833 -358.797 381.156 -206.472C150.48 -54.1466 146.271 -229.039 79.7617 -303.791Z" fill="#624448"/>
<path d="M713.805 610.557C705.721 551.845 691.243 502.572 654.954 511.677C618.665 520.782 595.666 548.771 606.751 617.317C621.624 709.294 734.23 758.883 713.805 610.557Z" fill="#4F3133"/>
<path d="M1698.57 4045.76C1727.85 4088.92 1758.88 4119.26 1785.9 4083.81C1812.92 4048.35 1821.54 4007.21 1785.98 3958.08C1738.25 3892.15 1624.6 3936.72 1698.57 4045.76Z" fill="#4F3133"/>
<path d="M679.338 4557.7C613.837 4645.85 567.717 4739.43 621.067 4821.44C674.416 4903.45 736.533 4929.86 811.112 4822.75C911.183 4679.03 844.814 4335 679.338 4557.7Z" fill="#4F3133"/>
<path d="M1008.87 632.648C993.544 534.998 874.447 507.7 830.173 562.523C740.97 654.956 727.164 883.938 915.549 990.752C1075.91 1081.68 1133.73 1031.58 1148.51 977.662C1156.23 943.067 1159.5 867.52 1110.79 842.088C1049.9 810.298 1023.28 724.5 1008.87 632.648Z" fill="#4F3133"/>
<path d="M222.918 3595.36C164.196 3539.61 64.6597 3636.05 59.3449 3718.93C39.8474 3872.88 141.536 4052.13 330.02 3945.66C490.462 3855.04 507.892 3762.35 492.295 3708.9C481.012 3676.32 446.528 3618.44 398.859 3647.55C339.272 3683.94 278.153 3647.79 222.918 3595.36Z" fill="#4F3133"/>
<path d="M42.7704 1177.54C31.8834 1157.83 12.9607 1137.78 0 1134.17V1527.48H1920V1107.55C1862.2 1057.94 1664 1000.7 1333.66 1168.67C920.729 1378.64 725.541 967.577 615.893 1107.55C506.245 1247.53 535.018 1123.33 456.476 1134.17C377.934 1145.01 386.488 1207.11 258.177 1284.99C129.866 1362.86 53.6208 1197.19 42.7704 1177.54Z" fill="#4F3133"/>
<path d="M1877.23 3280.23C1888.12 3305.51 1907.04 3331.21 1920 3335.84V2831.5H0V3369.97C57.8047 3433.59 256 3506.99 586.343 3291.6C999.271 3022.37 1194.46 3549.46 1304.11 3369.97C1413.75 3190.48 1384.98 3349.75 1463.52 3335.84C1542.07 3321.94 1533.51 3242.31 1661.82 3142.45C1790.13 3042.59 1866.38 3255.03 1877.23 3280.23Z" fill="#4F3133"/>
<path d="M1877.23 3145.75C1888.12 3192.93 1907.04 3240.91 1920 3249.56V1519H0V3313.26C57.8048 3432.01 256 3569 586.343 3166.98C999.271 2664.45 1194.46 3648.28 1304.11 3313.26C1413.75 2978.24 1384.98 3275.51 1463.52 3249.56C1542.07 3223.6 1533.51 3074.97 1661.82 2888.58C1790.13 2702.2 1866.38 3098.72 1877.23 3145.75Z" fill="#4F3133"/>
<path d="M227.572 1837.07C258.059 1795.61 279.471 1751.68 254.376 1713.5C229.282 1675.32 200.181 1663.18 165.48 1713.54C118.919 1781.11 150.552 1941.8 227.572 1837.07Z" fill="#624448"/>
<path d="M713.041 2424.79C789.68 2320.58 843.506 2210.14 780.423 2114.17C717.339 2018.21 644.185 1987.68 556.954 2114.27C439.906 2284.12 519.428 2688.07 713.041 2424.79Z" fill="#624448"/>
<path d="M1651.19 2713.3C1698.45 2793.2 1749.83 2851.09 1799.75 2794.02C1849.66 2736.95 1868.07 2666.91 1810.39 2575.59C1732.99 2453.05 1531.8 2511.46 1651.19 2713.3Z" fill="#624448"/>
<path d="M1758.12 1492.69C1769.21 1550.41 1786.19 1598.06 1821.91 1585.24C1857.63 1572.42 1879.13 1542.14 1864.54 1474.91C1844.97 1384.71 1730.11 1346.86 1758.12 1492.69Z" fill="#624448"/>
<path d="M1777.76 4324.96C1824.55 4380.54 1892.08 4371.58 1920 4360.15V5543H0V4363.76H19.3289C35.1885 4363.76 83.3619 4358.79 149.179 4338.94C231.451 4314.13 382.303 4315.93 473 4338.94C563.697 4361.95 775.794 4386.77 865.5 4338.94C937.265 4300.69 1058.55 4299.54 1083.5 4324.96C1092.75 4331.42 1166.53 4390.86 1226 4397C1300.34 4404.67 1416.46 4335.79 1479.4 4312.33C1529.76 4293.56 1606.11 4275.03 1638 4268.11C1665.09 4263.9 1730.97 4269.38 1777.76 4324.96Z" fill="#4F3133"/>
<path d="M142.241 212.042C95.4548 156.46 27.9195 165.423 0 176.852V0H1920V173.243H1900.67C1884.81 173.243 1836.64 178.206 1770.82 198.057C1688.55 222.87 1366.4 196.252 1275.7 173.243C1185.01 150.234 1082.91 176.852 993.206 224.675C921.441 262.933 839.236 226.179 814.29 200.764C805.039 194.297 786.04 175.319 726.567 169.183C652.225 161.513 503.542 201.215 440.599 224.675C390.245 243.443 313.887 261.97 282.003 268.888C254.91 273.099 189.026 267.625 142.241 212.042Z" fill="#4F3133"/>
<path d="M1505.81 4560.25C1414.08 4469.04 1312.82 4399.47 1208.57 4447.66C1104.33 4495.86 1063.32 4563.69 1175.61 4668.69C1326.28 4809.57 1737.56 4790.67 1505.81 4560.25Z" fill="#624448"/>
<path d="M126.188 4850.64C173.446 4930.54 224.834 4988.43 274.746 4931.36C324.658 4874.29 343.073 4804.25 285.39 4712.93C207.991 4590.39 6.80011 4648.8 126.188 4850.64Z" fill="#624448"/>
</g>
<defs>
<clipPath id="clip0_6_530">
<rect width="1920" height="4986" fill="white"/>
</clipPath>
</defs>
</svg>
